<?xml version="1.0" standalone="no"?>
<!DOCTYPE svg PUBLIC "-//W3C//DTD SVG 20010904//EN"
 "http://www.w3.org/TR/2001/REC-SVG-20010904/DTD/svg10.dtd">
<svg version="1.0" xmlns="http://www.w3.org/2000/svg"
 width="512.000000pt" height="512.000000pt" viewBox="0 0 512.000000 512.000000"
 preserveAspectRatio="xMidYMid meet">

<g transform="translate(0.000000,512.000000) scale(0.100000,-0.100000)"
fill="#669933" stroke="none">
<path d="M3710 5111 c-96 -31 -171 -102 -195 -185 -9 -28 -15 -90 -15 -143 l0
-93 -1438 0 -1438 0 -52 -26 c-57 -28 -96 -69 -123 -129 -17 -37 -19 -80 -19
-611 l0 -572 28 -53 c31 -60 93 -113 150 -129 20 -5 108 -10 196 -10 146 0
158 -1 153 -17 -38 -124 -67 -230 -67 -249 0 -39 42 -78 83 -78 46 0 74 25 87
78 66 262 168 468 325 656 227 271 520 443 887 522 150 32 417 32 575 0 316
-63 571 -200 799 -427 129 -128 213 -244 289 -395 298 -594 179 -1314 -294
-1780 -415 -409 -1015 -549 -1567 -365 -453 150 -819 516 -969 969 -45 134
-63 230 -76 389 -9 111 -14 135 -31 154 -30 32 -87 31 -118 -2 -21 -23 -23
-33 -22 -112 3 -107 16 -212 41 -315 l18 -77 -424 -366 c-233 -202 -435 -383
-449 -404 -56 -86 -54 -216 5 -298 42 -58 1116 -983 1176 -1013 40 -20 64 -25
120 -24 88 1 150 28 205 92 52 58 70 121 70 239 l0 93 1438 0 c1369 0 1439 1
1477 19 60 27 101 66 129 123 l26 52 0 565 c-1 447 -4 574 -14 604 -20 55 -61
103 -114 134 -46 27 -51 28 -224 31 -98 2 -178 6 -178 9 0 3 13 48 30 101 16
54 36 133 45 178 37 188 34 477 -8 661 l-24 103 424 366 c233 201 435 382 449
403 56 86 54 216 -5 299 -43 58 -1127 991 -1180 1015 -49 21 -142 31 -181 18z
m113 -172 c49 -27 1109 -952 1119 -977 26 -67 21 -73 -397 -434 -214 -185
-392 -337 -395 -337 -3 0 -27 48 -55 106 -228 489 -700 847 -1241 944 -167 30
-421 30 -588 0 -454 -81 -857 -342 -1114 -720 -32 -47 -71 -110 -87 -138 l-28
-53 -194 0 c-193 0 -194 0 -218 25 l-25 24 0 544 c0 521 1 546 19 568 l19 24
1492 5 1492 5 24 28 c23 27 24 34 24 173 0 84 5 154 11 165 14 26 68 59 97 59
13 0 33 -5 45 -11z m-2798 -3116 c293 -628 986 -1027 1670 -963 372 34 689
166 972 403 143 121 311 328 389 480 l24 47 196 0 c194 0 195 0 219 -25 l25
-24 0 -544 c0 -521 -1 -546 -19 -568 l-19 -24 -1492 -5 -1492 -5 -24 -28 c-23
-27 -24 -34 -24 -178 l0 -151 -29 -28 c-32 -33 -69 -45 -106 -36 -35 9 -1124
952 -1136 984 -26 68 -25 68 394 432 216 186 394 339 397 339 3 0 28 -48 55
-106z"/>
<path d="M2517 3659 c-26 -15 -47 -70 -47 -123 l0 -44 -67 -21 c-117 -36 -235
-133 -292 -240 -150 -282 -14 -626 289 -728 l65 -22 3 -341 2 -340 -27 6 c-50
11 -177 75 -229 115 -61 47 -103 51 -139 14 -36 -35 -33 -76 9 -122 62 -69
234 -156 349 -177 37 -7 37 -7 37 -54 0 -92 53 -149 118 -126 35 12 62 66 62
126 l0 47 61 17 c116 33 239 134 298 244 150 281 13 625 -289 727 l-65 22 -3
341 -2 341 22 -6 c13 -4 32 -9 43 -12 41 -11 142 -66 191 -104 62 -48 103 -52
139 -13 14 16 25 39 25 55 0 77 -193 202 -371 240 l-49 11 0 44 c0 103 -65
163 -133 123z m-47 -675 l0 -325 -22 6 c-37 11 -116 65 -144 97 -14 17 -37 54
-52 82 -23 44 -27 63 -27 141 0 106 19 157 86 230 40 43 118 93 147 95 9 0 12
-72 12 -326z m272 -566 c57 -36 90 -73 126 -142 23 -44 27 -63 27 -141 0 -106
-19 -157 -86 -230 -39 -42 -122 -95 -149 -95 -7 0 -10 108 -10 326 l0 325 23
-6 c12 -4 43 -21 69 -37z"/>
</g>
</svg>
