<?xml version="1.0" standalone="no"?>
<!DOCTYPE svg PUBLIC "-//W3C//DTD SVG 20010904//EN"
 "http://www.w3.org/TR/2001/REC-SVG-20010904/DTD/svg10.dtd">
<svg version="1.0" xmlns="http://www.w3.org/2000/svg"
 width="1074.000000pt" height="576.000000pt" viewBox="0 0 1074.000000 576.000000"
 preserveAspectRatio="xMidYMid meet">

<g transform="translate(0.000000,576.000000) scale(0.100000,-0.100000)"
fill="#fff" stroke="none">
<path d="M0 2880 l0 -2880 5370 0 5370 0 0 2880 0 2880 -5370 0 -5370 0 0
-2880z m5610 2410 c365 -45 674 -239 856 -537 l41 -68 721 -5 721 -5 -61 -77
-61 -78 -624 0 c-342 0 -623 -3 -623 -6 0 -3 8 -35 17 -70 l17 -64 553 0 553
0 -66 -85 -67 -85 -474 0 -473 0 0 -65 0 -65 421 -2 421 -3 -66 -82 -67 -83
-368 0 -369 0 -11 -47 c-7 -27 -14 -56 -17 -65 -5 -17 15 -18 331 -18 l335 0
-67 -85 -68 -85 -305 0 -305 0 -26 -48 c-45 -81 -116 -167 -213 -259 -138
-131 -298 -218 -495 -271 -86 -23 -115 -26 -276 -26 -155 -1 -192 2 -270 22
-297 75 -542 254 -710 519 l-40 63 -305 0 -305 0 -62 83 -62 82 330 3 331 2
-7 28 c-3 15 -11 44 -16 65 l-10 37 -367 0 -368 0 -67 85 -67 85 425 0 425 0
0 65 0 65 -477 1 -478 0 -63 82 -63 82 550 3 c303 1 551 3 551 5 0 1 9 32 19
70 l20 67 -627 0 -627 0 -57 75 c-32 41 -58 77 -58 80 0 3 323 5 718 5 l717 0
34 58 c167 280 480 495 791 541 41 6 86 13 100 15 51 7 128 6 210 -4z m-2004
-3405 c41 -17 64 -63 64 -130 l0 -45 -69 0 -70 0 -3 33 c-3 31 -5 32 -51 35
l-48 3 3 -83 3 -83 86 -5 c145 -8 164 -37 157 -236 -5 -176 -25 -194 -200
-194 -151 0 -184 24 -195 143 l-6 67 76 0 76 0 3 -47 c3 -48 3 -48 41 -51 57
-5 67 9 67 92 0 43 -5 77 -12 84 -7 7 -42 12 -85 12 -137 0 -158 29 -158 215
0 136 11 165 68 190 44 19 207 19 253 0z m3130 0 c41 -17 64 -63 64 -130 l0
-45 -69 0 -70 0 -3 33 c-3 31 -5 32 -51 35 l-48 3 3 -83 3 -83 86 -5 c145 -8
164 -37 157 -236 -5 -176 -25 -194 -200 -194 -151 0 -184 24 -195 143 l-6 67
76 0 76 0 3 -47 c3 -48 3 -48 41 -51 57 -5 67 9 67 92 0 43 -5 77 -12 84 -7 7
-42 12 -85 12 -137 0 -158 29 -158 215 0 136 11 165 68 190 44 19 207 19 253
0z m1231 -5 c57 -34 58 -38 61 -377 l3 -313 -80 0 -81 0 0 115 0 115 -50 0
-50 0 0 -115 0 -115 -81 0 -80 0 3 313 c3 283 5 316 21 341 29 43 69 55 192
56 92 0 115 -3 142 -20z m-6165 -28 l33 -32 3 -124 c5 -195 -16 -225 -168
-234 l-90 -5 0 -133 0 -134 -75 0 -75 0 0 351 0 350 170 -3 170 -3 32 -33z
m593 24 c46 -19 66 -54 72 -125 8 -87 -4 -149 -34 -177 -14 -13 -21 -24 -15
-24 6 0 18 -13 27 -30 11 -22 15 -64 15 -180 l0 -150 -75 0 -74 0 -3 143 -3
142 -42 3 -43 3 0 -145 0 -146 -80 0 -80 0 0 350 0 350 150 0 c107 0 160 -4
185 -14z m645 -46 l0 -60 -80 0 -80 0 0 -85 0 -85 75 0 75 0 0 -60 0 -60 -75
0 -75 0 0 -80 0 -80 80 0 80 0 0 -65 0 -65 -160 0 -160 0 0 350 0 350 160 0
160 0 0 -60z m1022 -237 l3 -298 48 -3 47 -3 0 300 0 301 75 0 75 0 0 -309 c0
-177 -4 -321 -10 -335 -5 -14 -24 -35 -42 -46 -29 -19 -47 -20 -155 -18 -113
3 -123 5 -147 27 -14 14 -30 41 -36 60 -5 20 -10 166 -10 329 l0 292 75 0 75
0 2 -297z m870 259 l33 -32 3 -124 c5 -195 -16 -225 -168 -234 l-90 -5 0 -133
0 -134 -75 0 -75 0 0 351 0 350 170 -3 170 -3 32 -33z m420 -259 l3 -298 48
-3 47 -3 0 300 0 301 75 0 75 0 0 -309 c0 -177 -4 -321 -10 -335 -5 -14 -24
-35 -42 -46 -29 -19 -47 -20 -155 -18 -113 3 -123 5 -147 27 -14 14 -30 41
-36 60 -5 20 -10 166 -10 329 l0 292 75 0 75 0 2 -297z m818 237 l0 -60 -80 0
-80 0 0 -85 0 -85 75 0 75 0 0 -60 0 -60 -75 0 -75 0 0 -80 0 -80 80 0 80 0 0
-65 0 -65 -160 0 -160 0 0 350 0 350 160 0 160 0 0 -60z m1210 -5 l0 -65 -55
0 -55 0 0 -285 0 -285 -75 0 -75 0 0 285 0 285 -60 0 -60 0 0 65 0 65 190 0
190 0 0 -65z m1262 27 l33 -32 3 -124 c5 -195 -16 -225 -168 -234 l-90 -5 0
-133 0 -134 -75 0 -75 0 0 351 0 350 170 -3 170 -3 32 -33z m640 0 l33 -32 3
-124 c5 -195 -16 -225 -168 -234 l-90 -5 0 -133 0 -134 -75 0 -75 0 0 351 0
350 170 -3 170 -3 32 -33z m-3527 -1116 c17 -12 22 -12 39 0 30 21 109 18 137
-5 23 -19 24 -24 27 -195 l4 -176 -46 0 -46 0 0 165 0 165 -25 0 -25 0 0 -165
0 -165 -40 0 -40 0 -2 163 -3 162 -27 3 -28 3 0 -165 0 -166 -40 0 -40 0 0
173 c0 176 4 197 40 210 30 11 97 7 115 -7z m-805 -169 c0 -199 -2 -205 -84
-214 -89 -10 -126 14 -126 83 l0 44 40 0 c39 0 40 -1 40 -35 0 -31 3 -35 25
-35 l25 0 0 165 0 165 40 0 40 0 0 -173z m292 156 c16 -14 18 -34 18 -174 0
-193 3 -189 -132 -189 l-88 0 0 190 0 190 92 0 c71 0 95 -4 110 -17z m278 -18
c0 -35 0 -35 -45 -35 l-45 0 0 -45 0 -45 45 0 c45 0 45 0 45 -35 0 -35 0 -35
-45 -35 l-45 0 0 -75 0 -75 -40 0 -40 0 0 190 0 190 85 0 85 0 0 -35z"/>
<path d="M5321 5135 c-205 -37 -389 -134 -533 -281 -128 -130 -207 -261 -252
-416 -106 -367 -6 -755 262 -1010 118 -112 253 -193 395 -237 251 -77 551 -48
776 75 92 50 134 83 224 172 186 183 281 396 294 659 15 307 -96 580 -319 790
-214 201 -555 301 -847 248z m271 -190 c184 -16 395 -129 516 -278 374 -461
172 -1119 -398 -1299 -64 -20 -96 -23 -215 -23 -161 1 -223 14 -351 75 -198
95 -357 281 -424 495 -32 100 -39 294 -15 401 44 202 181 401 350 509 125 81
339 142 450 129 11 -2 50 -5 87 -9z"/>
<path d="M5460 4490 c0 -22 -5 -30 -17 -30 -64 0 -149 -53 -177 -109 -58 -114
-4 -231 130 -286 l59 -24 3 -77 3 -77 -33 7 c-18 4 -56 22 -85 41 l-52 34 -33
-47 c-19 -26 -37 -53 -42 -59 -14 -24 103 -84 207 -107 25 -6 27 -10 27 -56
l0 -50 49 0 c54 0 61 8 61 66 0 29 3 34 23 34 43 0 130 53 161 97 24 34 29 53
30 100 1 98 -53 165 -166 208 l-48 18 0 73 c0 41 3 74 6 74 4 0 33 -13 65 -30
l58 -29 30 54 c17 30 31 59 31 65 0 12 -80 53 -137 70 -38 12 -43 17 -43 42 0
27 -1 28 -55 28 -54 0 -55 0 -55 -30z m0 -226 l0 -66 -22 14 c-47 31 -53 84
-14 110 29 19 36 7 36 -58z m140 -274 c37 -37 15 -110 -33 -110 -17 0 -19 5
-13 31 3 17 6 47 6 65 0 39 11 43 40 14z"/>
<path d="M7777 1794 c-4 -4 -7 -63 -7 -131 l0 -123 50 0 51 0 -3 128 -3 127
-40 3 c-23 2 -44 0 -48 -4z"/>
<path d="M1580 1679 l0 -110 53 3 52 3 3 99 c3 112 1 116 -65 116 l-43 0 0
-111z"/>
<path d="M2220 1685 l0 -105 44 0 c53 0 56 5 56 109 0 88 -8 101 -62 101 l-38
0 0 -105z"/>
<path d="M4710 1679 l0 -110 53 3 52 3 3 99 c3 112 1 116 -65 116 l-43 0 0
-111z"/>
<path d="M8420 1679 l0 -110 53 3 52 3 3 99 c3 112 1 116 -65 116 l-43 0 0
-111z"/>
<path d="M9060 1679 l0 -110 53 3 52 3 3 99 c3 112 1 116 -65 116 l-43 0 0
-111z"/>
<path d="M5120 556 l0 -136 30 0 31 0 -3 133 -3 132 -27 3 -28 3 0 -135z"/>
</g>
</svg>
